<?xml version="1.0" encoding="iso-8859-1"?>
<!-- Uploaded to: SVG Repo, www.svgrepo.com, Generator: SVG Repo Mixer Tools -->
<svg height="800px" width="800px" version="1.1" id="Layer_1" xmlns="http://www.w3.org/2000/svg" xmlns:xlink="http://www.w3.org/1999/xlink" 
	 viewBox="0 0 512 512" xml:space="preserve">
<circle style="fill:#4AB8A1;" cx="256" cy="256" r="256"/>
<path style="fill:#43A691;" d="M100,180v152c0,13.2,10.8,24,24,24h367.728C504.772,325.272,512,291.484,512,256
	s-7.228-69.272-20.272-100H124C110.8,156,100,166.8,100,180z"/>
<path style="fill:#F5F5F5;" d="M512,256c0-30.92-5.484-60.564-15.528-88H128c-8.8,0-16,7.2-16,16v144c0,8.8,7.2,16,16,16h368.472
	C506.516,316.564,512,286.92,512,256z"/>
<g>
	<path style="fill:#4AB8A1;" d="M154.1,217.136v22.636c3.812-4.448,8.368-6.68,13.656-6.68c2.716,0,5.164,0.508,7.352,1.516
		s3.828,2.296,4.936,3.868c1.104,1.572,1.86,3.304,2.268,5.212c0.404,1.908,0.604,4.86,0.604,8.868v26.172h-11.804v-23.576
		c0-4.672-0.228-7.64-0.68-8.904c-0.44-1.26-1.236-2.264-2.368-3.008c-1.132-0.748-2.56-1.112-4.26-1.112
		c-1.964,0-3.716,0.472-5.252,1.424s-2.664,2.4-3.384,4.308c-0.72,1.916-1.072,4.752-1.072,8.504v22.36h-11.804v-61.588H154.1z"/>
	<path style="fill:#4AB8A1;" d="M215.36,234.1v9.416h-8.064v17.98c0,3.644,0.08,5.764,0.228,6.368
		c0.156,0.596,0.504,1.096,1.056,1.488c0.552,0.396,1.216,0.588,1.992,0.588c1.092,0,2.672-0.384,4.752-1.136l1.008,9.16
		c-2.748,1.18-5.852,1.764-9.324,1.764c-2.132,0-4.048-0.36-5.756-1.076c-1.704-0.716-2.96-1.636-3.756-2.768s-1.352-2.672-1.66-4.6
		c-0.252-1.376-0.376-4.148-0.376-8.316V243.52h-5.42v-9.416h5.42v-8.86l11.848-6.892v15.752h8.052V234.1z"/>
	<path style="fill:#4AB8A1;" d="M244.016,234.1v9.416h-8.064v17.98c0,3.644,0.08,5.764,0.228,6.368
		c0.156,0.596,0.504,1.096,1.056,1.488c0.548,0.396,1.212,0.588,1.992,0.588c1.092,0,2.672-0.384,4.752-1.136l1.008,9.16
		c-2.748,1.18-5.852,1.764-9.324,1.764c-2.132,0-4.056-0.36-5.756-1.076c-1.712-0.716-2.96-1.636-3.756-2.768s-1.352-2.672-1.66-4.6
		c-0.252-1.376-0.38-4.148-0.38-8.316V243.52h-5.416v-9.416h5.416v-8.86l11.852-6.892v15.752h8.052V234.1z"/>
	<path style="fill:#4AB8A1;" d="M251.872,234.1h11.012v6.564c1.424-2.244,3.36-4.072,5.792-5.464c2.432-1.4,5.14-2.096,8.104-2.096
		c5.188,0,9.584,2.036,13.192,6.088c3.612,4.068,5.416,9.724,5.416,16.976c0,7.44-1.82,13.24-5.46,17.372
		c-3.64,4.128-8.048,6.196-13.232,6.196c-2.464,0-4.704-0.484-6.704-1.468c-2.004-0.976-4.112-2.664-6.324-5.04V295.7h-11.804
		L251.872,234.1L251.872,234.1z M263.556,255.656c0,5.02,0.992,8.728,2.98,11.108c1.988,2.404,4.412,3.592,7.264,3.592
		c2.748,0,5.028-1.092,6.848-3.296c1.824-2.2,2.736-5.804,2.736-10.812c0-4.68-0.936-8.148-2.812-10.42
		c-1.884-2.264-4.208-3.408-6.976-3.408c-2.892,0-5.276,1.108-7.188,3.344C264.504,247.996,263.556,251.288,263.556,255.656z"/>
	<path style="fill:#4AB8A1;" d="M307.036,245.916v-11.804h11.804v11.804H307.036z M307.036,278.728V266.92h11.804v11.804h-11.804
		V278.728z"/>
	<path style="fill:#4AB8A1;" d="M327.116,279.772l15.252-63.696h8.868l-15.416,63.696H327.116z"/>
	<path style="fill:#4AB8A1;" d="M351.024,279.772l15.252-63.696h8.868l-15.416,63.696H351.024z"/>
	<path style="fill:#4AB8A1;" d="M389.556,278.728l-14.124-44.616h11.476l8.36,29.244l7.688-29.244h11.388l7.432,29.244l8.536-29.244
		h11.628l-14.32,44.616h-11.344l-7.688-28.696l-7.568,28.696H389.556z"/>
	<path style="fill:#4AB8A1;" d="M456.48,278.728l-14.12-44.616h11.472l8.364,29.244l7.688-29.244h11.384l7.432,29.244l8.536-29.244
		h11.632l-14.32,44.616h-11.352l-7.684-28.696l-7.568,28.696H456.48z"/>
</g>
</svg>